<?xml version="1.0" encoding="UTF-8"?>
<svg baseProfile="full" height="608" style="font-family:monospace;font-size:16px" version="1.1" width="693.6" xmlns="http://www.w3.org/2000/svg" xmlns:ev="http://www.w3.org/2001/xml-events" xmlns:xlink="http://www.w3.org/1999/xlink">
  <defs/>
  <svg overflow="visible" x="0">
    <defs/>
    <svg height="608.0" overflow="visible" width="144.0" x="0" y="0">
      <defs/>
      <text alignment-baseline="middle" style="font-size:3em" x="0" y="304.0">covid</text>
    </svg>
    <svg height="231.6190476190476" overflow="visible" width="28.799999999999997" x="211.2" y="0">
      <defs/>
      <text alignment-baseline="middle" style="font-size:3em" x="0" y="115.8095238095238">.</text>
    </svg>
    <path d="M 153.600000 304.000000 C 177.600000 304.000000 177.600000 115.809524 201.600000 115.809524" fill-opacity="0" stroke="#000" stroke-width="1.5"/>
    <svg height="102.66666666666666" overflow="visible" width="57.599999999999994" x="307.2" y="0">
      <defs/>
      <text alignment-baseline="middle" style="font-size:1em" x="0" y="51.33333333333333">he was</text>
    </svg>
    <path d="M 249.600000 115.809524 C 273.600000 115.809524 273.600000 51.333333 297.600000 51.333333" fill-opacity="0" stroke="#000" stroke-width="1.5"/>
    <svg height="34.0" overflow="visible" width="144.0" x="432.0" y="0">
      <defs/>
      <text alignment-baseline="middle" style="font-size:1em" x="0" y="17.0">only marginally</text>
    </svg>
    <path d="M 374.400000 51.333333 C 398.400000 51.333333 398.400000 17.000000 422.400000 17.000000" fill-opacity="0" stroke="#000" stroke-width="1.5"/>
    <svg height="34.0" overflow="visible" width="115.19999999999999" x="432.0" y="34.0">
      <defs/>
      <text alignment-baseline="middle" style="font-size:1em" x="0" y="17.0">spraying c*m</text>
    </svg>
    <path d="M 374.400000 51.333333 C 398.400000 51.333333 398.400000 51.000000 422.400000 51.000000" fill-opacity="0" stroke="#000" stroke-width="1.5"/>
    <svg height="34.0" overflow="visible" width="38.4" x="432.0" y="68.0">
      <defs/>
      <text alignment-baseline="middle" style="font-size:1em" x="0" y="17.0">sick</text>
    </svg>
    <path d="M 374.400000 51.333333 C 398.400000 51.333333 398.400000 85.000000 422.400000 85.000000" fill-opacity="0" stroke="#000" stroke-width="1.5"/>
    <svg height="25.666666666666664" overflow="visible" width="211.2" x="307.2" y="102.66666666666666">
      <defs/>
      <text alignment-baseline="middle" style="font-size:1em" x="0" y="12.833333333333332">learn some f**king non</text>
    </svg>
    <path d="M 249.600000 115.809524 C 273.600000 115.809524 273.600000 115.500000 297.600000 115.500000" fill-opacity="0" stroke="#000" stroke-width="1.5"/>
    <svg height="102.66666666666666" overflow="visible" width="86.39999999999999" x="307.2" y="128.33333333333331">
      <defs/>
      <text alignment-baseline="middle" style="font-size:1em" x="0" y="51.33333333333333">anyways i</text>
    </svg>
    <path d="M 249.600000 115.809524 C 273.600000 115.809524 273.600000 179.666667 297.600000 179.666667" fill-opacity="0" stroke="#000" stroke-width="1.5"/>
    <svg height="34.0" overflow="visible" width="76.8" x="460.79999999999995" y="128.33333333333331">
      <defs/>
      <text alignment-baseline="middle" style="font-size:1em" x="0" y="17.0">held her</text>
    </svg>
    <path d="M 403.200000 179.666667 C 427.200000 179.666667 427.200000 145.333333 451.200000 145.333333" fill-opacity="0" stroke="#000" stroke-width="1.5"/>
    <svg height="34.0" overflow="visible" width="192.0" x="460.79999999999995" y="162.33333333333331">
      <defs/>
      <text alignment-baseline="middle" style="font-size:1em" x="0" y="17.0">specifically changed</text>
    </svg>
    <path d="M 403.200000 179.666667 C 427.200000 179.666667 427.200000 179.333333 451.200000 179.333333" fill-opacity="0" stroke="#000" stroke-width="1.5"/>
    <svg height="34.0" overflow="visible" width="48.0" x="460.79999999999995" y="196.33333333333331">
      <defs/>
      <text alignment-baseline="middle" style="font-size:1em" x="0" y="17.0">drive</text>
    </svg>
    <path d="M 403.200000 179.666667 C 427.200000 179.666667 427.200000 213.333333 451.200000 213.333333" fill-opacity="0" stroke="#000" stroke-width="1.5"/>
    <svg height="231.6190476190476" overflow="visible" width="38.4" x="211.2" y="231.6190476190476">
      <defs/>
      <text alignment-baseline="middle" style="font-size:2em" x="0" y="115.8095238095238">is</text>
    </svg>
    <path d="M 153.600000 304.000000 C 177.600000 304.000000 177.600000 347.428571 201.600000 347.428571" fill-opacity="0" stroke="#000" stroke-width="1.5"/>
    <svg height="128.33333333333334" overflow="visible" width="16.8" x="316.79999999999995" y="231.6190476190476">
      <defs/>
      <text alignment-baseline="middle" style="font-size:1.75em" x="0" y="64.16666666666667">a</text>
    </svg>
    <path d="M 259.200000 347.428571 C 283.200000 347.428571 283.200000 295.785714 307.200000 295.785714" fill-opacity="0" stroke="#000" stroke-width="1.5"/>
    <svg height="76.8" overflow="visible" width="182.4" x="400.79999999999995" y="231.6190476190476">
      <defs/>
      <text alignment-baseline="middle" style="font-size:1em" x="0" y="38.4">respiratory disease</text>
    </svg>
    <path d="M 343.200000 295.785714 C 367.200000 295.785714 367.200000 270.019048 391.200000 270.019048" fill-opacity="0" stroke="#000" stroke-width="1.5"/>
    <svg height="38.0" overflow="visible" width="43.199999999999996" x="650.4" y="231.6190476190476">
      <defs/>
      <text alignment-baseline="middle" style="font-size:1.5em" x="0" y="19.0">but</text>
    </svg>
    <path d="M 592.800000 270.019048 C 616.800000 270.019048 616.800000 250.619048 640.800000 250.619048" fill-opacity="0" stroke="#000" stroke-width="1.5"/>
    <svg height="38.0" overflow="visible" width="28.799999999999997" x="650.4" y="269.6190476190476">
      <defs/>
      <text alignment-baseline="middle" style="font-size:1.5em" x="0" y="19.0">if</text>
    </svg>
    <path d="M 592.800000 270.019048 C 616.800000 270.019048 616.800000 288.619048 640.800000 288.619048" fill-opacity="0" stroke="#000" stroke-width="1.5"/>
    <svg height="25.6" overflow="visible" width="134.4" x="400.79999999999995" y="308.4190476190476">
      <defs/>
      <text alignment-baseline="middle" style="font-size:1em" x="0" y="12.8">thing overseas</text>
    </svg>
    <path d="M 343.200000 295.785714 C 367.200000 295.785714 367.200000 321.219048 391.200000 321.219048" fill-opacity="0" stroke="#000" stroke-width="1.5"/>
    <svg height="25.6" overflow="visible" width="76.8" x="400.79999999999995" y="334.0190476190476">
      <defs/>
      <text alignment-baseline="middle" style="font-size:1em" x="0" y="12.8">vascular</text>
    </svg>
    <path d="M 343.200000 295.785714 C 367.200000 295.785714 367.200000 346.819048 391.200000 346.819048" fill-opacity="0" stroke="#000" stroke-width="1.5"/>
    <svg height="77.0" overflow="visible" width="100.80000000000001" x="316.79999999999995" y="359.95238095238096">
      <defs/>
      <text alignment-baseline="middle" style="font-size:1.5em" x="0" y="38.5">f**king</text>
    </svg>
    <path d="M 259.200000 347.428571 C 283.200000 347.428571 283.200000 398.452381 307.200000 398.452381" fill-opacity="0" stroke="#000" stroke-width="1.5"/>
    <svg height="38.5" overflow="visible" width="124.8" x="484.79999999999995" y="359.95238095238096">
      <defs/>
      <text alignment-baseline="middle" style="font-size:1em" x="0" y="19.25">chopped liver</text>
    </svg>
    <path d="M 427.200000 398.452381 C 451.200000 398.452381 451.200000 379.202381 475.200000 379.202381" fill-opacity="0" stroke="#000" stroke-width="1.5"/>
    <svg height="38.5" overflow="visible" width="86.39999999999999" x="484.79999999999995" y="398.45238095238096">
      <defs/>
      <text alignment-baseline="middle" style="font-size:1em" x="0" y="19.25">nothing .</text>
    </svg>
    <path d="M 427.200000 398.452381 C 451.200000 398.452381 451.200000 417.702381 475.200000 417.702381" fill-opacity="0" stroke="#000" stroke-width="1.5"/>
    <svg height="25.666666666666664" overflow="visible" width="100.80000000000001" x="316.79999999999995" y="436.95238095238096">
      <defs/>
      <text alignment-baseline="middle" style="font-size:1.5em" x="0" y="12.833333333333332">fake or</text>
    </svg>
    <path d="M 259.200000 347.428571 C 283.200000 347.428571 283.200000 449.785714 307.200000 449.785714" fill-opacity="0" stroke="#000" stroke-width="1.5"/>
    <svg height="144.76190476190476" overflow="visible" width="19.2" x="211.2" y="463.2380952380952">
      <defs/>
      <text alignment-baseline="middle" style="font-size:2em" x="0" y="72.38095238095238">,</text>
    </svg>
    <path d="M 153.600000 304.000000 C 177.600000 304.000000 177.600000 535.619048 201.600000 535.619048" fill-opacity="0" stroke="#000" stroke-width="1.5"/>
    <svg height="86.39999999999999" overflow="visible" width="249.6" x="297.6" y="463.2380952380952">
      <defs/>
      <text alignment-baseline="middle" style="font-size:1em" x="0" y="43.199999999999996">collected unemployment and</text>
    </svg>
    <path d="M 240.000000 535.619048 C 264.000000 535.619048 264.000000 506.438095 288.000000 506.438095" fill-opacity="0" stroke="#000" stroke-width="1.5"/>
    <svg height="43.0" overflow="visible" width="76.8" x="614.4000000000001" y="463.2380952380952">
      <defs/>
      <text alignment-baseline="middle" style="font-size:1em" x="0" y="21.5">stimmies</text>
    </svg>
    <path d="M 556.800000 506.438095 C 580.800000 506.438095 580.800000 484.738095 604.800000 484.738095" fill-opacity="0" stroke="#000" stroke-width="1.5"/>
    <svg height="43.0" overflow="visible" width="38.4" x="614.4000000000001" y="506.2380952380952">
      <defs/>
      <text alignment-baseline="middle" style="font-size:1em" x="0" y="21.5">f**k</text>
    </svg>
    <path d="M 556.800000 506.438095 C 580.800000 506.438095 580.800000 527.738095 604.800000 527.738095" fill-opacity="0" stroke="#000" stroke-width="1.5"/>
    <svg height="28.8" overflow="visible" width="96.0" x="297.6" y="549.6380952380952">
      <defs/>
      <text alignment-baseline="middle" style="font-size:1em" x="0" y="14.4">f**k fauci</text>
    </svg>
    <path d="M 240.000000 535.619048 C 264.000000 535.619048 264.000000 564.038095 288.000000 564.038095" fill-opacity="0" stroke="#000" stroke-width="1.5"/>
    <svg height="28.8" overflow="visible" width="76.8" x="297.6" y="578.4380952380951">
      <defs/>
      <text alignment-baseline="middle" style="font-size:1em" x="0" y="14.4">then had</text>
    </svg>
    <path d="M 240.000000 535.619048 C 264.000000 535.619048 264.000000 592.838095 288.000000 592.838095" fill-opacity="0" stroke="#000" stroke-width="1.5"/>
  </svg>
</svg>
