<?xml version="1.0" encoding="UTF-8"?>
<svg baseProfile="full" height="448" style="font-family:monospace;font-size:16px" version="1.1" width="756.0" xmlns="http://www.w3.org/2000/svg" xmlns:ev="http://www.w3.org/2001/xml-events" xmlns:xlink="http://www.w3.org/1999/xlink">
  <defs/>
  <svg overflow="visible" x="0">
    <defs/>
    <svg height="448.0" overflow="visible" width="134.4" x="0" y="0">
      <defs/>
      <text alignment-baseline="middle" style="font-size:1.75em" x="0" y="224.0">election</text>
    </svg>
    <svg height="74.66666666666666" overflow="visible" width="518.4" x="201.60000000000002" y="0">
      <defs/>
      <text alignment-baseline="middle" style="font-size:2em" x="0" y="37.33333333333333">results we should recount s</text>
    </svg>
    <path d="M 144.000000 224.000000 C 168.000000 224.000000 168.000000 37.333333 192.000000 37.333333" fill-opacity="0" stroke="#000" stroke-width="1.5"/>
    <svg height="298.66666666666663" overflow="visible" width="50.39999999999999" x="201.60000000000002" y="74.66666666666666">
      <defs/>
      <text alignment-baseline="middle" style="font-size:1.75em" x="0" y="149.33333333333331">day</text>
    </svg>
    <path d="M 144.000000 224.000000 C 168.000000 224.000000 168.000000 224.000000 192.000000 224.000000" fill-opacity="0" stroke="#000" stroke-width="1.5"/>
    <svg height="223.5" overflow="visible" width="16.8" x="319.20000000000005" y="74.66666666666666">
      <defs/>
      <text alignment-baseline="middle" style="font-size:1.75em" x="0" y="111.75">.</text>
    </svg>
    <path d="M 261.600000 224.000000 C 285.600000 224.000000 285.600000 186.416667 309.600000 186.416667" fill-opacity="0" stroke="#000" stroke-width="1.5"/>
    <svg height="111.5" overflow="visible" width="352.8" x="403.20000000000005" y="74.66666666666666">
      <defs/>
      <text alignment-baseline="middle" style="font-size:1.75em" x="0" y="55.75">documents showing how</text>
    </svg>
    <path d="M 345.600000 186.416667 C 369.600000 186.416667 369.600000 130.416667 393.600000 130.416667" fill-opacity="0" stroke="#000" stroke-width="1.5"/>
    <svg height="111.5" overflow="visible" width="187.2" x="403.20000000000005" y="186.16666666666666">
      <defs/>
      <text alignment-baseline="middle" style="font-size:1.5em" x="0" y="55.75">tuck cucked .</text>
    </svg>
    <path d="M 345.600000 186.416667 C 369.600000 186.416667 369.600000 241.916667 393.600000 241.916667" fill-opacity="0" stroke="#000" stroke-width="1.5"/>
    <svg height="74.5" overflow="visible" width="297.59999999999997" x="319.20000000000005" y="298.16666666666663">
      <defs/>
      <text alignment-baseline="middle" style="font-size:1em" x="0" y="37.25">has confirmed russian tampering</text>
    </svg>
    <path d="M 261.600000 224.000000 C 285.600000 224.000000 285.600000 335.416667 309.600000 335.416667" fill-opacity="0" stroke="#000" stroke-width="1.5"/>
    <svg height="74.66666666666666" overflow="visible" width="352.8" x="201.60000000000002" y="373.33333333333326">
      <defs/>
      <text alignment-baseline="middle" style="font-size:1.75em" x="0" y="37.33333333333333">auditing organization</text>
    </svg>
    <path d="M 144.000000 224.000000 C 168.000000 224.000000 168.000000 410.666667 192.000000 410.666667" fill-opacity="0" stroke="#000" stroke-width="1.5"/>
  </svg>
</svg>