<?xml version="1.0" encoding="UTF-8"?>
<svg baseProfile="full" height="1344" style="font-family:monospace;font-size:16px" version="1.1" width="791.9999999999999" xmlns="http://www.w3.org/2000/svg" xmlns:ev="http://www.w3.org/2001/xml-events" xmlns:xlink="http://www.w3.org/1999/xlink">
  <defs/>
  <svg overflow="visible" x="0">
    <defs/>
    <svg height="1344.0" overflow="visible" width="201.60000000000002" x="0" y="0">
      <defs/>
      <text alignment-baseline="middle" style="font-size:3em" x="0" y="672.0">vaccine</text>
    </svg>
    <svg height="173.41935483870967" overflow="visible" width="14.399999999999999" x="268.8" y="0">
      <defs/>
      <text alignment-baseline="middle" style="font-size:1.5em" x="0" y="86.70967741935483">.</text>
    </svg>
    <path d="M 211.200000 672.000000 C 235.200000 672.000000 235.200000 86.709677 259.200000 86.709677" fill-opacity="0" stroke="#000" stroke-width="1.5"/>
    <svg height="57.666666666666664" overflow="visible" width="33.6" x="350.4" y="0">
      <defs/>
      <text alignment-baseline="middle" style="font-size:1.75em" x="0" y="28.833333333333332">if</text>
    </svg>
    <path d="M 292.800000 86.709677 C 316.800000 86.709677 316.800000 28.833333 340.800000 28.833333" fill-opacity="0" stroke="#000" stroke-width="1.5"/>
    <svg height="57.666666666666664" overflow="visible" width="326.4" x="350.4" y="57.666666666666664">
      <defs/>
      <text alignment-baseline="middle" style="font-size:1em" x="0" y="28.833333333333332">having reviewed available clinical</text>
    </svg>
    <path d="M 292.800000 86.709677 C 316.800000 86.709677 316.800000 86.500000 340.800000 86.500000" fill-opacity="0" stroke="#000" stroke-width="1.5"/>
    <svg height="57.666666666666664" overflow="visible" width="76.8" x="350.4" y="115.33333333333333">
      <defs/>
      <text alignment-baseline="middle" style="font-size:1em" x="0" y="28.833333333333332">ive been</text>
    </svg>
    <path d="M 292.800000 86.709677 C 316.800000 86.709677 316.800000 144.166667 340.800000 144.166667" fill-opacity="0" stroke="#000" stroke-width="1.5"/>
    <svg height="303.48387096774195" overflow="visible" width="28.799999999999997" x="268.8" y="173.41935483870967">
      <defs/>
      <text alignment-baseline="middle" style="font-size:1.5em" x="0" y="151.74193548387098">is</text>
    </svg>
    <path d="M 211.200000 672.000000 C 235.200000 672.000000 235.200000 325.161290 259.200000 325.161290" fill-opacity="0" stroke="#000" stroke-width="1.5"/>
    <svg height="113.625" overflow="visible" width="57.599999999999994" x="364.8" y="173.41935483870967">
      <defs/>
      <text alignment-baseline="middle" style="font-size:1.5em" x="0" y="56.8125">good</text>
    </svg>
    <path d="M 307.200000 325.161290 C 331.200000 325.161290 331.200000 230.231855 355.200000 230.231855" fill-opacity="0" stroke="#000" stroke-width="1.5"/>
    <svg height="56.5" overflow="visible" width="201.6" x="489.6" y="173.41935483870967">
      <defs/>
      <text alignment-baseline="middle" style="font-size:1em" x="0" y="28.25">covid is catastrophic</text>
    </svg>
    <path d="M 432.000000 230.231855 C 456.000000 230.231855 456.000000 201.669355 480.000000 201.669355" fill-opacity="0" stroke="#000" stroke-width="1.5"/>
    <svg height="56.5" overflow="visible" width="76.8" x="489.6" y="229.91935483870967">
      <defs/>
      <text alignment-baseline="middle" style="font-size:1em" x="0" y="28.25">listened</text>
    </svg>
    <path d="M 432.000000 230.231855 C 456.000000 230.231855 456.000000 258.169355 480.000000 258.169355" fill-opacity="0" stroke="#000" stroke-width="1.5"/>
    <svg height="151.5" overflow="visible" width="115.19999999999999" x="364.8" y="287.04435483870964">
      <defs/>
      <text alignment-baseline="middle" style="font-size:1.5em" x="0" y="75.75">going to</text>
    </svg>
    <path d="M 307.200000 325.161290 C 331.200000 325.161290 331.200000 362.794355 355.200000 362.794355" fill-opacity="0" stroke="#000" stroke-width="1.5"/>
    <svg height="50.33333333333333" overflow="visible" width="48.0" x="547.2" y="287.04435483870964">
      <defs/>
      <text alignment-baseline="middle" style="font-size:1em" x="0" y="25.166666666666664">do to</text>
    </svg>
    <path d="M 489.600000 362.794355 C 513.600000 362.794355 513.600000 312.211022 537.600000 312.211022" fill-opacity="0" stroke="#000" stroke-width="1.5"/>
    <svg height="50.33333333333333" overflow="visible" width="105.6" x="547.2" y="337.37768817204295">
      <defs/>
      <text alignment-baseline="middle" style="font-size:1em" x="0" y="25.166666666666664">happen even</text>
    </svg>
    <path d="M 489.600000 362.794355 C 513.600000 362.794355 513.600000 362.544355 537.600000 362.544355" fill-opacity="0" stroke="#000" stroke-width="1.5"/>
    <svg height="50.33333333333333" overflow="visible" width="124.8" x="547.2" y="387.71102150537627">
      <defs/>
      <text alignment-baseline="middle" style="font-size:1em" x="0" y="25.166666666666664">kill everyone</text>
    </svg>
    <path d="M 489.600000 362.794355 C 513.600000 362.794355 513.600000 412.877688 537.600000 412.877688" fill-opacity="0" stroke="#000" stroke-width="1.5"/>
    <svg height="37.875" overflow="visible" width="67.2" x="364.8" y="438.54435483870964">
      <defs/>
      <text alignment-baseline="middle" style="font-size:1em" x="0" y="18.9375">working</text>
    </svg>
    <path d="M 307.200000 325.161290 C 331.200000 325.161290 331.200000 457.481855 355.200000 457.481855" fill-opacity="0" stroke="#000" stroke-width="1.5"/>
    <svg height="867.0967741935484" overflow="visible" width="14.399999999999999" x="268.8" y="476.9032258064516">
      <defs/>
      <text alignment-baseline="middle" style="font-size:1.5em" x="0" y="433.5483870967742">,</text>
    </svg>
    <path d="M 211.200000 672.000000 C 235.200000 672.000000 235.200000 910.451613 259.200000 910.451613" fill-opacity="0" stroke="#000" stroke-width="1.5"/>
    <svg height="354.6818181818182" overflow="visible" width="19.2" x="350.4" y="476.9032258064516">
      <defs/>
      <text alignment-baseline="middle" style="font-size:2em" x="0" y="177.3409090909091">i</text>
    </svg>
    <path d="M 292.800000 910.451613 C 316.800000 910.451613 316.800000 654.244135 340.800000 654.244135" fill-opacity="0" stroke="#000" stroke-width="1.5"/>
    <svg height="141.6" overflow="visible" width="57.599999999999994" x="436.79999999999995" y="476.9032258064516">
      <defs/>
      <text alignment-baseline="middle" style="font-size:1.5em" x="0" y="70.8">have</text>
    </svg>
    <path d="M 379.200000 654.244135 C 403.200000 654.244135 403.200000 547.703226 427.200000 547.703226" fill-opacity="0" stroke="#000" stroke-width="1.5"/>
    <svg height="47.0" overflow="visible" width="67.2" x="561.5999999999999" y="476.9032258064516">
      <defs/>
      <text alignment-baseline="middle" style="font-size:1em" x="0" y="23.5">my card</text>
    </svg>
    <path d="M 504.000000 547.703226 C 528.000000 547.703226 528.000000 500.403226 552.000000 500.403226" fill-opacity="0" stroke="#000" stroke-width="1.5"/>
    <svg height="47.0" overflow="visible" width="86.39999999999999" x="561.5999999999999" y="523.9032258064516">
      <defs/>
      <text alignment-baseline="middle" style="font-size:1em" x="0" y="23.5">no qualms</text>
    </svg>
    <path d="M 504.000000 547.703226 C 528.000000 547.703226 528.000000 547.403226 552.000000 547.403226" fill-opacity="0" stroke="#000" stroke-width="1.5"/>
    <svg height="47.0" overflow="visible" width="96.0" x="561.5999999999999" y="570.9032258064516">
      <defs/>
      <text alignment-baseline="middle" style="font-size:1em" x="0" y="23.5">never said</text>
    </svg>
    <path d="M 504.000000 547.703226 C 528.000000 547.703226 528.000000 594.403226 552.000000 594.403226" fill-opacity="0" stroke="#000" stroke-width="1.5"/>
    <svg height="177.0" overflow="visible" width="38.4" x="436.79999999999995" y="618.5032258064516">
      <defs/>
      <text alignment-baseline="middle" style="font-size:1em" x="0" y="88.5">dont</text>
    </svg>
    <path d="M 379.200000 654.244135 C 403.200000 654.244135 403.200000 707.003226 427.200000 707.003226" fill-opacity="0" stroke="#000" stroke-width="1.5"/>
    <svg height="141.6" overflow="visible" width="100.80000000000001" x="542.4" y="618.5032258064516">
      <defs/>
      <text alignment-baseline="middle" style="font-size:1.5em" x="0" y="70.8">f**king</text>
    </svg>
    <path d="M 484.800000 707.003226 C 508.800000 707.003226 508.800000 689.303226 532.800000 689.303226" fill-opacity="0" stroke="#000" stroke-width="1.5"/>
    <svg height="47.0" overflow="visible" width="38.4" x="710.4" y="618.5032258064516">
      <defs/>
      <text alignment-baseline="middle" style="font-size:1em" x="0" y="23.5">care</text>
    </svg>
    <path d="M 652.800000 689.303226 C 676.800000 689.303226 676.800000 642.003226 700.800000 642.003226" fill-opacity="0" stroke="#000" stroke-width="1.5"/>
    <svg height="47.0" overflow="visible" width="67.2" x="710.4" y="665.5032258064516">
      <defs/>
      <text alignment-baseline="middle" style="font-size:1em" x="0" y="23.5">results</text>
    </svg>
    <path d="M 652.800000 689.303226 C 676.800000 689.303226 676.800000 689.003226 700.800000 689.003226" fill-opacity="0" stroke="#000" stroke-width="1.5"/>
    <svg height="47.0" overflow="visible" width="38.4" x="710.4" y="712.5032258064516">
      <defs/>
      <text alignment-baseline="middle" style="font-size:1em" x="0" y="23.5">love</text>
    </svg>
    <path d="M 652.800000 689.303226 C 676.800000 689.303226 676.800000 736.003226 700.800000 736.003226" fill-opacity="0" stroke="#000" stroke-width="1.5"/>
    <svg height="35.4" overflow="visible" width="38.4" x="542.4" y="760.1032258064516">
      <defs/>
      <text alignment-baseline="middle" style="font-size:1em" x="0" y="17.7">have</text>
    </svg>
    <path d="M 484.800000 707.003226 C 508.800000 707.003226 508.800000 777.803226 532.800000 777.803226" fill-opacity="0" stroke="#000" stroke-width="1.5"/>
    <svg height="35.4" overflow="visible" width="201.6" x="436.79999999999995" y="795.5032258064516">
      <defs/>
      <text alignment-baseline="middle" style="font-size:1em" x="0" y="17.7">didnt die immediately</text>
    </svg>
    <path d="M 379.200000 654.244135 C 403.200000 654.244135 403.200000 813.203226 427.200000 813.203226" fill-opacity="0" stroke="#000" stroke-width="1.5"/>
    <svg height="236.45454545454544" overflow="visible" width="28.799999999999997" x="350.4" y="831.5850439882697">
      <defs/>
      <text alignment-baseline="middle" style="font-size:1.5em" x="0" y="118.22727272727272">it</text>
    </svg>
    <path d="M 292.800000 910.451613 C 316.800000 910.451613 316.800000 949.812317 340.800000 949.812317" fill-opacity="0" stroke="#000" stroke-width="1.5"/>
    <svg height="157.33333333333331" overflow="visible" width="19.2" x="446.4" y="831.5850439882697">
      <defs/>
      <text alignment-baseline="middle" style="font-size:1em" x="0" y="78.66666666666666">is</text>
    </svg>
    <path d="M 388.800000 949.812317 C 412.800000 949.812317 412.800000 910.251711 436.800000 910.251711" fill-opacity="0" stroke="#000" stroke-width="1.5"/>
    <svg height="117.75" overflow="visible" width="57.599999999999994" x="532.8" y="831.5850439882697">
      <defs/>
      <text alignment-baseline="middle" style="font-size:1.5em" x="0" y="58.875">from</text>
    </svg>
    <path d="M 475.200000 910.251711 C 499.200000 910.251711 499.200000 890.460044 523.200000 890.460044" fill-opacity="0" stroke="#000" stroke-width="1.5"/>
    <svg height="58.5" overflow="visible" width="134.4" x="657.5999999999999" y="831.5850439882697">
      <defs/>
      <text alignment-baseline="middle" style="font-size:1em" x="0" y="29.25">commorbidities</text>
    </svg>
    <path d="M 600.000000 890.460044 C 624.000000 890.460044 624.000000 860.835044 648.000000 860.835044" fill-opacity="0" stroke="#000" stroke-width="1.5"/>
    <svg height="58.5" overflow="visible" width="48.0" x="657.5999999999999" y="890.0850439882697">
      <defs/>
      <text alignment-baseline="middle" style="font-size:1em" x="0" y="29.25">covid</text>
    </svg>
    <path d="M 600.000000 890.460044 C 624.000000 890.460044 624.000000 919.335044 648.000000 919.335044" fill-opacity="0" stroke="#000" stroke-width="1.5"/>
    <svg height="39.25" overflow="visible" width="67.2" x="532.8" y="949.3350439882697">
      <defs/>
      <text alignment-baseline="middle" style="font-size:1em" x="0" y="19.625">afoot ,</text>
    </svg>
    <path d="M 475.200000 910.251711 C 499.200000 910.251711 499.200000 968.960044 523.200000 968.960044" fill-opacity="0" stroke="#000" stroke-width="1.5"/>
    <svg height="39.33333333333333" overflow="visible" width="192.0" x="446.4" y="988.918377321603">
      <defs/>
      <text alignment-baseline="middle" style="font-size:1em" x="0" y="19.666666666666664">has become political</text>
    </svg>
    <path d="M 388.800000 949.812317 C 412.800000 949.812317 412.800000 1008.585044 436.800000 1008.585044" fill-opacity="0" stroke="#000" stroke-width="1.5"/>
    <svg height="39.33333333333333" overflow="visible" width="67.2" x="446.4" y="1028.2517106549362">
      <defs/>
      <text alignment-baseline="middle" style="font-size:1em" x="0" y="19.666666666666664">started</text>
    </svg>
    <path d="M 388.800000 949.812317 C 412.800000 949.812317 412.800000 1047.918377 436.800000 1047.918377" fill-opacity="0" stroke="#000" stroke-width="1.5"/>
    <svg height="275.8636363636364" overflow="visible" width="28.799999999999997" x="350.4" y="1068.0395894428152">
      <defs/>
      <text alignment-baseline="middle" style="font-size:1.5em" x="0" y="137.9318181818182">we</text>
    </svg>
    <path d="M 292.800000 910.451613 C 316.800000 910.451613 316.800000 1205.971408 340.800000 1205.971408" fill-opacity="0" stroke="#000" stroke-width="1.5"/>
    <svg height="235.7142857142857" overflow="visible" width="43.199999999999996" x="446.4" y="1068.0395894428152">
      <defs/>
      <text alignment-baseline="middle" style="font-size:1.5em" x="0" y="117.85714285714285">are</text>
    </svg>
    <path d="M 388.800000 1205.971408 C 412.800000 1205.971408 412.800000 1185.896732 436.800000 1185.896732" fill-opacity="0" stroke="#000" stroke-width="1.5"/>
    <svg height="156.66666666666666" overflow="visible" width="33.6" x="556.8" y="1068.0395894428152">
      <defs/>
      <text alignment-baseline="middle" style="font-size:1.75em" x="0" y="78.33333333333333">in</text>
    </svg>
    <path d="M 499.200000 1185.896732 C 523.200000 1185.896732 523.200000 1146.372923 547.200000 1146.372923" fill-opacity="0" stroke="#000" stroke-width="1.5"/>
    <svg height="52.0" overflow="visible" width="86.39999999999999" x="657.5999999999999" y="1068.0395894428152">
      <defs/>
      <text alignment-baseline="middle" style="font-size:1em" x="0" y="26.0">uncharted</text>
    </svg>
    <path d="M 600.000000 1146.372923 C 624.000000 1146.372923 624.000000 1094.039589 648.000000 1094.039589" fill-opacity="0" stroke="#000" stroke-width="1.5"/>
    <svg height="52.0" overflow="visible" width="67.2" x="657.5999999999999" y="1120.0395894428152">
      <defs/>
      <text alignment-baseline="middle" style="font-size:1em" x="0" y="26.0">florida</text>
    </svg>
    <path d="M 600.000000 1146.372923 C 624.000000 1146.372923 624.000000 1146.039589 648.000000 1146.039589" fill-opacity="0" stroke="#000" stroke-width="1.5"/>
    <svg height="52.0" overflow="visible" width="67.2" x="657.5999999999999" y="1172.0395894428152">
      <defs/>
      <text alignment-baseline="middle" style="font-size:1em" x="0" y="26.0">testing</text>
    </svg>
    <path d="M 600.000000 1146.372923 C 624.000000 1146.372923 624.000000 1198.039589 648.000000 1198.039589" fill-opacity="0" stroke="#000" stroke-width="1.5"/>
    <svg height="39.166666666666664" overflow="visible" width="76.8" x="556.8" y="1224.706256109482">
      <defs/>
      <text alignment-baseline="middle" style="font-size:1em" x="0" y="19.583333333333332">not sure</text>
    </svg>
    <path d="M 499.200000 1185.896732 C 523.200000 1185.896732 523.200000 1244.289589 547.200000 1244.289589" fill-opacity="0" stroke="#000" stroke-width="1.5"/>
    <svg height="39.166666666666664" overflow="visible" width="105.6" x="556.8" y="1263.8729227761487">
      <defs/>
      <text alignment-baseline="middle" style="font-size:1em" x="0" y="19.583333333333332">held liable</text>
    </svg>
    <path d="M 499.200000 1185.896732 C 523.200000 1185.896732 523.200000 1283.456256 547.200000 1283.456256" fill-opacity="0" stroke="#000" stroke-width="1.5"/>
    <svg height="39.285714285714285" overflow="visible" width="67.2" x="446.4" y="1303.753875157101">
      <defs/>
      <text alignment-baseline="middle" style="font-size:1em" x="0" y="19.642857142857142">changed</text>
    </svg>
    <path d="M 388.800000 1205.971408 C 412.800000 1205.971408 412.800000 1323.396732 436.800000 1323.396732" fill-opacity="0" stroke="#000" stroke-width="1.5"/>
  </svg>
</svg>
