<?xml version="1.0" encoding="UTF-8"?>
<svg baseProfile="full" height="416" style="font-family:monospace;font-size:16px" version="1.1" width="528.0" xmlns="http://www.w3.org/2000/svg" xmlns:ev="http://www.w3.org/2001/xml-events" xmlns:xlink="http://www.w3.org/1999/xlink">
  <defs/>
  <svg overflow="visible" x="0">
    <defs/>
    <svg height="416.0" overflow="visible" width="115.19999999999999" x="0" y="0">
      <defs/>
      <text alignment-baseline="middle" style="font-size:1.5em" x="0" y="208.0">vaccines</text>
    </svg>
    <svg height="148.57142857142858" overflow="visible" width="28.799999999999997" x="182.39999999999998" y="0">
      <defs/>
      <text alignment-baseline="middle" style="font-size:1em" x="0" y="74.28571428571429">are</text>
    </svg>
    <path d="M 124.800000 208.000000 C 148.800000 208.000000 148.800000 74.285714 172.800000 74.285714" fill-opacity="0" stroke="#000" stroke-width="1.5"/>
    <svg height="88.8" overflow="visible" width="28.799999999999997" x="278.4" y="0">
      <defs/>
      <text alignment-baseline="middle" style="font-size:1em" x="0" y="44.4">not</text>
    </svg>
    <path d="M 220.800000 74.285714 C 244.800000 74.285714 244.800000 44.400000 268.800000 44.400000" fill-opacity="0" stroke="#000" stroke-width="1.5"/>
    <svg height="44.0" overflow="visible" width="144.0" x="374.4" y="0">
      <defs/>
      <text alignment-baseline="middle" style="font-size:1em" x="0" y="22.0">approved by any</text>
    </svg>
    <path d="M 316.800000 44.400000 C 340.800000 44.400000 340.800000 22.000000 364.800000 22.000000" fill-opacity="0" stroke="#000" stroke-width="1.5"/>
    <svg height="44.0" overflow="visible" width="57.599999999999994" x="374.4" y="44.0">
      <defs/>
      <text alignment-baseline="middle" style="font-size:1em" x="0" y="22.0">safe .</text>
    </svg>
    <path d="M 316.800000 44.400000 C 340.800000 44.400000 340.800000 66.000000 364.800000 66.000000" fill-opacity="0" stroke="#000" stroke-width="1.5"/>
    <svg height="29.6" overflow="visible" width="192.0" x="278.4" y="88.8">
      <defs/>
      <text alignment-baseline="middle" style="font-size:1em" x="0" y="14.8">dangerous and do not</text>
    </svg>
    <path d="M 220.800000 74.285714 C 244.800000 74.285714 244.800000 103.600000 268.800000 103.600000" fill-opacity="0" stroke="#000" stroke-width="1.5"/>
    <svg height="29.6" overflow="visible" width="192.0" x="278.4" y="118.4">
      <defs/>
      <text alignment-baseline="middle" style="font-size:1em" x="0" y="14.8">in their trial phase</text>
    </svg>
    <path d="M 220.800000 74.285714 C 244.800000 74.285714 244.800000 133.200000 268.800000 133.200000" fill-opacity="0" stroke="#000" stroke-width="1.5"/>
    <svg height="178.28571428571428" overflow="visible" width="9.6" x="182.39999999999998" y="148.57142857142858">
      <defs/>
      <text alignment-baseline="middle" style="font-size:1em" x="0" y="89.14285714285714">.</text>
    </svg>
    <path d="M 124.800000 208.000000 C 148.800000 208.000000 148.800000 237.714286 172.800000 237.714286" fill-opacity="0" stroke="#000" stroke-width="1.5"/>
    <svg height="118.66666666666666" overflow="visible" width="96.0" x="259.2" y="148.57142857142858">
      <defs/>
      <text alignment-baseline="middle" style="font-size:1em" x="0" y="59.33333333333333">should the</text>
    </svg>
    <path d="M 201.600000 237.714286 C 225.600000 237.714286 225.600000 207.904762 249.600000 207.904762" fill-opacity="0" stroke="#000" stroke-width="1.5"/>
    <svg height="39.33333333333333" overflow="visible" width="86.39999999999999" x="422.4" y="148.57142857142858">
      <defs/>
      <text alignment-baseline="middle" style="font-size:1em" x="0" y="19.666666666666664">us follow</text>
    </svg>
    <path d="M 364.800000 207.904762 C 388.800000 207.904762 388.800000 168.238095 412.800000 168.238095" fill-opacity="0" stroke="#000" stroke-width="1.5"/>
    <svg height="39.33333333333333" overflow="visible" width="96.0" x="422.4" y="187.90476190476193">
      <defs/>
      <text alignment-baseline="middle" style="font-size:1em" x="0" y="19.666666666666664">thing that</text>
    </svg>
    <path d="M 364.800000 207.904762 C 388.800000 207.904762 388.800000 207.571429 412.800000 207.571429" fill-opacity="0" stroke="#000" stroke-width="1.5"/>
    <svg height="39.33333333333333" overflow="visible" width="96.0" x="422.4" y="227.23809523809524">
      <defs/>
      <text alignment-baseline="middle" style="font-size:1em" x="0" y="19.666666666666664">past years</text>
    </svg>
    <path d="M 364.800000 207.904762 C 388.800000 207.904762 388.800000 246.904762 412.800000 246.904762" fill-opacity="0" stroke="#000" stroke-width="1.5"/>
    <svg height="29.666666666666664" overflow="visible" width="153.6" x="259.2" y="267.23809523809524">
      <defs/>
      <text alignment-baseline="middle" style="font-size:1em" x="0" y="14.833333333333332">dont care f**got</text>
    </svg>
    <path d="M 201.600000 237.714286 C 225.600000 237.714286 225.600000 282.071429 249.600000 282.071429" fill-opacity="0" stroke="#000" stroke-width="1.5"/>
    <svg height="29.666666666666664" overflow="visible" width="28.799999999999997" x="259.2" y="296.9047619047619">
      <defs/>
      <text alignment-baseline="middle" style="font-size:1em" x="0" y="14.833333333333332">its</text>
    </svg>
    <path d="M 201.600000 237.714286 C 225.600000 237.714286 225.600000 311.738095 249.600000 311.738095" fill-opacity="0" stroke="#000" stroke-width="1.5"/>
    <svg height="89.14285714285714" overflow="visible" width="38.4" x="182.39999999999998" y="326.8571428571429">
      <defs/>
      <text alignment-baseline="middle" style="font-size:1em" x="0" y="44.57142857142857">were</text>
    </svg>
    <path d="M 124.800000 208.000000 C 148.800000 208.000000 148.800000 371.428571 172.800000 371.428571" fill-opacity="0" stroke="#000" stroke-width="1.5"/>
    <svg height="44.5" overflow="visible" width="240.0" x="288.0" y="326.8571428571429">
      <defs/>
      <text alignment-baseline="middle" style="font-size:1em" x="0" y="22.25">tested didnt know sarscov</text>
    </svg>
    <path d="M 230.400000 371.428571 C 254.400000 371.428571 254.400000 349.107143 278.400000 349.107143" fill-opacity="0" stroke="#000" stroke-width="1.5"/>
    <svg height="44.5" overflow="visible" width="201.6" x="288.0" y="371.3571428571429">
      <defs/>
      <text alignment-baseline="middle" style="font-size:1em" x="0" y="22.25">so generously donated</text>
    </svg>
    <path d="M 230.400000 371.428571 C 254.400000 371.428571 254.400000 393.607143 278.400000 393.607143" fill-opacity="0" stroke="#000" stroke-width="1.5"/>
  </svg>
</svg>
